# xmcd
#
# Track frame offsets: 
#        150
#        9096
#        18978
#        32198
#        45521
#        56163
#        67151
#        78245
#        87693
#        99074
#
# Disc length: 1452 seconds
#
# Revision: 0
# Processed by: cddbd v1.5.2PL0 Copyright (c) Steve Scherf et al.
# Submitted via: ExactAudioCopy v0.95b4
#
DISCID=7305aa0a
DTITLE=Johnny Jones - Mowing Grass While Dressed Up In A Suit
DYEAR=2004
DGENRE=Country
TTITLE0=The Japanese Kidnapped My Son
TTITLE1=Mowing Grass While Dressed Up In A Suit
TTITLE2=Morning After A Night Of Lovin'
TTITLE3=She Didn't Plan On Living
TTITLE4=Can't Leave Any Sooner Than Today
TTITLE5=Yes Santa, There Is A Virginia
TTITLE6=Ode To A Country Music Fan
TTITLE7=Green Nanners
TTITLE8=A Cold Day In Hell
TTITLE9=Looking Out For Number One
EXTD=
EXTT0=
EXTT1=
EXTT2=
EXTT3=
EXTT4=
EXTT5=
EXTT6=
EXTT7=
EXTT8=
EXTT9=
PLAYORDER=
